<?xml version="1.0" encoding="UTF-8" standalone="no"?>
<!-- Creator: CorelDRAW X7 -->

<svg
   xmlns:dc="http://purl.org/dc/elements/1.1/"
   xmlns:cc="http://creativecommons.org/ns#"
   xmlns:rdf="http://www.w3.org/1999/02/22-rdf-syntax-ns#"
   xmlns:svg="http://www.w3.org/2000/svg"
   xmlns="http://www.w3.org/2000/svg"
   xmlns:sodipodi="http://sodipodi.sourceforge.net/DTD/sodipodi-0.dtd"
   xmlns:inkscape="http://www.inkscape.org/namespaces/inkscape"
   xml:space="preserve"
   width="275"
   height="130"
   version="1.1"
   style="clip-rule:evenodd;fill-rule:evenodd;image-rendering:optimizeQuality;shape-rendering:geometricPrecision;text-rendering:geometricPrecision"
   viewBox="0 0 5593.3411 2643.3253"
   id="svg2"
   inkscape:version="0.91 r"
   sodipodi:docname="Dojo.svg"><metadata
     id="metadata19"><rdf:RDF><cc:Work
         rdf:about=""><dc:format>image/svg+xml</dc:format><dc:type
           rdf:resource="http://purl.org/dc/dcmitype/StillImage" /><dc:title></dc:title></cc:Work></rdf:RDF></metadata><sodipodi:namedview
     pagecolor="#ffffff"
     bordercolor="#666666"
     borderopacity="1"
     objecttolerance="10"
     gridtolerance="10"
     guidetolerance="10"
     inkscape:pageopacity="0"
     inkscape:pageshadow="2"
     inkscape:window-width="1920"
     inkscape:window-height="1018"
     id="namedview17"
     showgrid="false"
     units="px"
     inkscape:zoom="2.0727302"
     inkscape:cx="65.243309"
     inkscape:cy="-61.181806"
     inkscape:window-x="0"
     inkscape:window-y="0"
     inkscape:window-maximized="1"
     inkscape:current-layer="svg2" /><defs
     id="defs4"><style
       type="text/css"
       id="style6"><![CDATA[
    .str0 {stroke:#FEFEFE;stroke-width:21.6193}
    .fil0 {fill:none}
    .fil2 {fill:#373435}
    .fil1 {fill:#00A859}
   ]]></style></defs><g
     id="Camada_x0020_1"
     transform="matrix(3.3333381,0,0,3.3343317,0,-0.23721153)"><metadata
       id="CorelCorpID_0Corel-Layer" /><rect
       class="fil0"
       width="1678"
       height="793"
       id="rect10"
       x="0"
       y="0"
       style="fill:none" /><g
       id="_809235059952"><path
         class="fil1"
         d="m 474,380 c -6,3 -13,5 -20,6 -6,2 -13,2 -20,2 -11,0 -21,-1 -30,-5 -8,-3 -16,-8 -22,-15 -6,-7 -10,-15 -13,-25 -3,-10 -5,-21 -5,-34 0,-14 2,-26 5,-36 4,-10 8,-19 15,-26 6,-8 13,-13 22,-17 9,-4 19,-6 30,-6 4,0 7,0 10,1 3,0 7,0 10,1 3,0 6,1 9,1 3,1 6,2 9,3 l 0,30 c -6,-3 -13,-6 -19,-7 -6,-1 -12,-2 -17,-2 -7,0 -13,1 -19,4 -5,3 -9,7 -13,11 -3,5 -5,11 -7,18 -2,7 -2,14 -2,22 0,9 0,17 2,24 2,6 4,12 8,17 3,5 7,8 13,11 5,2 11,3 19,3 2,0 5,0 8,-1 3,0 6,-1 10,-2 3,0 6,-1 9,-3 3,-1 6,-2 8,-3 l 0,28 z m 872,-90 -9,9 c -50,18 -27,18 -38,29 -8,8 -48,13 -56,10 -34,-22 -84,-55 -130,-87 6,0 13,1 19,2 7,2 14,5 19,7 l 0,-29 c -6,-2 -13,-4 -20,-5 -7,-1 -14,-2 -21,-2 -10,0 -20,1 -29,4 -30,-22 -57,-42 -74,-58 2,13 28,37 62,64 -6,3 -11,7 -15,12 -7,8 -12,16 -15,27 -3,10 -5,22 -5,36 0,13 1,24 5,34 3,10 8,19 14,25 6,7 13,12 22,16 8,3 18,5 29,5 9,0 18,-1 25,-3 8,-1 16,-4 23,-7 l 0,-85 -56,0 0,25 27,0 0,40 c -1,1 -3,1 -4,1 -1,1 -2,1 -3,1 -1,1 -2,1 -4,1 -1,0 -3,0 -5,0 -7,0 -14,-1 -19,-4 -5,-2 -10,-6 -13,-11 -4,-4 -6,-10 -8,-17 -1,-7 -2,-14 -2,-23 0,-9 1,-17 3,-24 2,-7 5,-13 9,-17 3,-5 8,-9 14,-11 1,-1 2,-2 4,-2 59,44 129,88 142,98 16,19 24,9 40,17 9,5 -2,-1 15,17 -21,6 -37,5 -47,19 -11,16 -44,146 -42,156 l 6,15 c 4,13 7,9 9,11 -4,4 -5,4 -7,10 14,15 64,6 97,7 35,1 73,12 94,-9 22,-1 50,2 71,0 31,-4 35,3 63,3 1,0 4,-3 5,-4 14,-8 8,3 29,-17 l -2,-12 -5,-4 c 10,-2 2,-1 5,3 21,20 13,15 1,28 10,12 28,-2 34,-8 2,-13 0,-26 -2,-39 -1,-15 -3,-19 -13,-28 l -81,10 c -22,-28 -22,-11 -29,-32 -4,-12 5,-78 4,-107 -1,-20 -12,-18 -12,-47 l 14,-2 c 17,-24 8,-45 13,-74 5,-29 -22,-38 -18,-65 l -8,-7 c 0,-1 -1,-1 -1,-1 9,-4 7,1 15,-2 17,-6 -1,-38 -2,-41 l 15,2 c 3,-5 1,6 2,-6 1,-7 -3,-10 -6,-16 -7,0 -9,1 -14,3 -12,-29 -34,-38 -62,-24 -29,15 -21,32 -28,63 6,5 6,3 9,14 1,3 2,8 2,10 6,16 17,6 29,16 1,16 -10,12 -20,19 -7,5 -7,16 -17,26 -13,12 -2,10 -20,21 -5,3 -7,6 -13,8 -8,3 -8,0 -14,6 z M 487,506 c 0,12 -2,24 -5,34 -3,10 -7,18 -14,25 -6,7 -14,13 -24,17 -10,4 -22,6 -36,6 l -39,0 0,-160 46,0 c 12,0 22,2 31,5 9,3 17,8 23,14 6,6 10,14 13,24 3,10 5,21 5,35 z m -32,2 c 0,-9 -1,-16 -2,-23 -1,-7 -4,-13 -7,-17 -3,-5 -7,-8 -13,-11 -5,-2 -12,-3 -20,-3 l -15,0 0,108 13,0 c 14,0 25,-4 33,-13 7,-8 11,-22 11,-41 z m 168,-1 c 0,15 -1,27 -5,38 -3,10 -7,19 -13,26 -6,6 -13,11 -21,15 -7,3 -16,4 -25,4 -20,0 -36,-7 -46,-21 -10,-13 -16,-34 -16,-60 0,-15 2,-27 5,-38 4,-10 8,-19 14,-26 6,-6 13,-11 20,-15 8,-3 17,-4 25,-4 21,0 36,6 47,20 10,14 15,35 15,61 z m -31,2 c 0,-19 -2,-33 -7,-43 -5,-9 -13,-13 -25,-13 -5,0 -10,1 -14,3 -4,2 -7,6 -10,11 -3,4 -4,10 -6,17 -1,7 -1,14 -1,23 0,19 2,33 7,43 5,9 13,13 24,13 6,0 11,-1 15,-3 4,-3 7,-6 10,-11 2,-4 4,-10 5,-17 2,-7 2,-15 2,-23 z m 144,31 c 0,7 -1,14 -3,20 -3,7 -6,12 -11,16 -4,5 -10,8 -16,11 -7,2 -14,3 -23,3 -7,0 -13,-1 -19,-2 -6,-2 -11,-4 -16,-6 l 0,-29 c 2,2 5,3 7,5 3,1 6,2 9,3 3,2 6,2 9,3 3,1 7,1 10,1 2,0 5,-1 8,-2 3,-1 5,-2 8,-4 2,-3 4,-6 5,-9 1,-4 2,-9 2,-14 l 0,-83 -56,0 0,-25 86,0 0,112 z m 157,-33 c 0,15 -2,27 -5,38 -3,10 -8,19 -14,26 -5,6 -12,11 -20,15 -8,3 -16,4 -25,4 -21,0 -36,-7 -46,-21 -11,-13 -16,-34 -16,-60 0,-15 2,-27 5,-38 3,-10 8,-19 14,-26 5,-6 12,-11 20,-15 8,-3 16,-4 25,-4 21,0 36,6 46,20 11,14 16,35 16,61 z m -31,2 c 0,-19 -3,-33 -8,-43 -5,-9 -13,-13 -24,-13 -6,0 -11,1 -15,3 -4,2 -7,6 -9,11 -3,4 -5,10 -6,17 -1,7 -2,14 -2,23 0,19 3,33 8,43 5,9 13,13 24,13 6,0 10,-1 14,-3 5,-3 8,-6 10,-11 3,-4 5,-10 6,-17 1,-7 2,-15 2,-23 z M 620,306 c 0,14 -2,27 -5,37 -4,11 -8,19 -14,26 -6,7 -13,12 -20,15 -8,3 -17,5 -25,5 -21,0 -37,-7 -47,-21 -10,-14 -15,-34 -15,-61 0,-14 1,-27 5,-37 3,-11 7,-19 13,-26 6,-7 13,-12 20,-15 8,-3 17,-5 25,-5 21,0 37,7 47,21 10,14 16,34 16,61 z m -32,1 c 0,-19 -2,-33 -7,-42 -5,-9 -13,-14 -24,-14 -6,0 -11,1 -15,4 -4,2 -7,5 -10,10 -2,5 -4,10 -6,17 -1,7 -1,15 -1,24 0,18 2,33 7,42 5,9 13,14 25,14 5,0 10,-1 14,-4 4,-2 7,-6 10,-10 3,-5 4,-11 6,-18 1,-6 1,-14 1,-23 z m 164,-3 c 0,13 -1,24 -4,34 -3,10 -8,19 -14,26 -7,7 -15,12 -25,16 -9,4 -21,6 -35,6 l -40,0 0,-159 46,0 c 12,0 23,1 32,4 9,3 16,8 22,14 6,7 11,15 14,24 3,10 4,22 4,35 z m -31,2 c 0,-8 -1,-16 -2,-23 -2,-6 -4,-12 -7,-17 -3,-4 -8,-8 -13,-10 -6,-3 -12,-4 -20,-4 l -15,0 0,109 13,0 c 14,0 25,-5 32,-13 8,-9 12,-23 12,-42 z m 56,-55 0,-24 99,0 0,24 -35,0 0,110 35,0 0,25 -99,0 0,-25 34,0 0,-110 -34,0 z m 205,135 -42,-95 -9,-21 0,67 0,49 -26,0 0,-159 36,0 43,95 7,19 0,-70 0,-44 27,0 0,159 -36,0 z"
         id="path13"
         inkscape:connector-curvature="0"
         style="fill:#00a859" /><path
         class="fil2 str0"
         d="m 102,480 -30,0 -1,-48 40,0 11,-65 -53,0 -2,-48 63,0 15,-85 49,0 -14,85 47,0 14,-85 51,0 -15,85 30,0 1,48 -39,0 -11,65 52,0 2,48 -63,0 -14,85 -49,0 14,-85 -48,0 -15,85 -49,0 14,-85 z m 69,-113 -11,65 48,0 10,-65 -47,0 z"
         id="path15"
         inkscape:connector-curvature="0"
         style="fill:#373435;stroke:#fefefe;stroke-width:21.61930084" /></g></g></svg>